<?xml version="1.0" encoding="UTF-8" standalone="no"?>
<!-- Created with Inkscape (http://www.inkscape.org/) -->

<svg
   xmlns:dc="http://purl.org/dc/elements/1.1/"
   xmlns:cc="http://creativecommons.org/ns#"
   xmlns:rdf="http://www.w3.org/1999/02/22-rdf-syntax-ns#"
   xmlns:svg="http://www.w3.org/2000/svg"
   xmlns="http://www.w3.org/2000/svg"
   xmlns:sodipodi="http://sodipodi.sourceforge.net/DTD/sodipodi-0.dtd"
   xmlns:inkscape="http://www.inkscape.org/namespaces/inkscape"
   version="1.1"
   id="svg2"
   width="666.66669"
   height="585.33331"
   viewBox="0 0 666.66669 585.33331"
   sodipodi:docname="piper_hex.svg"
   inkscape:export-filename="/home/january/Pictures/piper.png"
   inkscape:export-xdpi="71.977081"
   inkscape:export-ydpi="71.977081"
   inkscape:version="0.92.5 (2060ec1f9f, 2020-04-08)">
  <metadata
     id="metadata8">
    <rdf:RDF>
      <cc:Work
         rdf:about="">
        <dc:format>image/svg+xml</dc:format>
        <dc:type
           rdf:resource="http://purl.org/dc/dcmitype/StillImage" />
        <dc:title />
      </cc:Work>
    </rdf:RDF>
  </metadata>
  <defs
     id="defs6">
    <clipPath
       id="clip-path-2">
      <polygon
         class="cls-2"
         points="-74.7,214.5 -74.7,636.6 -433.3,845 -800.1,636.6 -800.1,214.5 -433.3,7.4 "
         id="polygon7" />
    </clipPath>
  </defs>
  <sodipodi:namedview
     pagecolor="#ffffff"
     bordercolor="#666666"
     borderopacity="1"
     objecttolerance="10"
     gridtolerance="10"
     guidetolerance="10"
     inkscape:pageopacity="0"
     inkscape:pageshadow="2"
     inkscape:window-width="1920"
     inkscape:window-height="1016"
     id="namedview4"
     showgrid="false"
     inkscape:zoom="0.80637816"
     inkscape:cx="263.88702"
     inkscape:cy="142.36072"
     inkscape:window-x="0"
     inkscape:window-y="27"
     inkscape:window-maximized="1"
     inkscape:current-layer="svg2" />
  <text
     xml:space="preserve"
     style="font-style:normal;font-weight:normal;font-size:40px;line-height:1.25;font-family:sans-serif;letter-spacing:0px;word-spacing:0px;fill:#000000;fill-opacity:1;stroke:none"
     x="7.4406776"
     y="394.35593"
     id="text4526"><tspan
       sodipodi:role="line"
       id="tspan4524"
       x="7.4406776"
       y="394.35593"> </tspan></text>
  <g
     id="g825"
     transform="translate(-381.95478,96.728811)">
    <g
       style="fill:#47336f;fill-opacity:1"
       id="g23"
       clip-path="url(#clip-path-2)"
       class="cls-4"
       transform="translate(1176.5073,-148.4147)">
      <circle
         style="fill:#47336f;fill-opacity:1"
         id="circle21"
         r="442.10001"
         cy="437.39999"
         cx="-437.39999"
         class="cls-5" />
    </g>
    <path
       inkscape:connector-curvature="0"
       id="path4528-2"
       d="m 769.26683,524.31978 c -11.48071,-12.6334 -37.09789,-0.22335 -51.04866,-12.83908 -14.60907,-15.42906 -16.25972,-39.3959 -24.3205,-58.77459 -5.39803,-17.87865 -3.92629,-37.22827 3.33205,-54.31018 5.72607,-4.99059 24.55548,-12.60325 19.34292,1.9628 -6.03348,18.93093 -9.90166,37.30135 2.17909,55.18675 1.46307,17.20588 23.2845,43.77714 5.63594,55.11924 12.37073,9.32953 39.80451,5.71023 57.93116,7.0005 10.1285,3.95707 24.90697,-6.73349 7.82265,-7.97507 -20.7742,1.17211 -46.95719,-1.41213 -51.94962,-26.22723 -7.92551,-19.85366 -12.72817,-41.2815 -15.28332,-61.86084 2.15452,-16.86109 3.72182,-37.5284 26.41074,-32.24974 29.52612,-3.50295 59.24435,-11.66586 84.48358,-27.68355 26.3338,-17.82256 48.21573,-46.76088 47.44908,-79.83083 1.72774,-13.89555 -10.37463,-51.06159 15.0607,-43.37123 20.43148,0.63203 38.41728,13.05404 57.43343,16.41434 -4.09268,-15.11688 -29.26778,-20.15781 -42.1543,-29.94229 -11.68542,-3.81733 -18.41305,-9.74295 -15.45985,-22.4071 -3.71029,-20.59082 -27.49391,-28.75715 -46.02202,-28.13107 -21.80492,-3.81649 -35.64408,17.26206 -43.53553,34.2727 -9.13462,21.46347 -33.22896,19.71647 -52.37993,22.6884 -32.84521,3.75187 -64.75519,13.01207 -94.46738,27.53438 -17.74925,8.59424 -37.1476,13.69285 -55.75406,19.62054 -20.2943,2.41812 -38.97577,12.9964 -59.42951,14.61499 -21.10967,-1.63448 -38.33954,8.98317 -57.35541,12.20122 -21.18618,0.43132 -0.20997,23.36946 11.0041,24.13473 21.73896,3.86836 43.86845,5.72037 65.75087,8.95001 20.04951,7.31954 34.9933,23.59961 54.474,31.72696 13.65353,7.78806 26.45655,12.78116 41.42569,17.66374 8.59616,5.79968 29.80135,1.86206 23.67668,20.20356 -7.30144,18.12555 -8.93732,36.58656 2.30322,53.8063 4.38372,16.69463 18.72193,40.46312 11.12944,54.84216 -13.89086,12.66504 22.91877,6.58099 31.478,9.88871 13.61044,0.27408 27.22457,0.11808 40.83675,0.15956 0,-0.79626 0,-1.59253 0,-2.38879 z"
       style="fill:#ffffff;fill-opacity:1;stroke-width:1.00482571" />
    <text
       id="text819"
       y="118.66824"
       x="503.8067"
       style="font-style:normal;font-weight:normal;font-size:25.79160118px;line-height:1.25;font-family:sans-serif;letter-spacing:0px;word-spacing:0px;fill:#ffffff;fill-opacity:1;stroke:none;stroke-width:0.64479005"
       xml:space="preserve"><tspan
         style="font-style:normal;font-variant:normal;font-weight:normal;font-stretch:normal;font-size:128.95800781px;font-family:'Berlin Sans FB';-inkscape-font-specification:'Berlin Sans FB, Normal';font-variant-ligatures:normal;font-variant-caps:normal;font-variant-numeric:normal;font-feature-settings:normal;text-align:start;writing-mode:lr-tb;text-anchor:start;fill:#ffffff;fill-opacity:1;stroke-width:0.64479005"
         y="118.66824"
         x="503.8067"
         id="tspan817"
         sodipodi:role="line">seaPiper</tspan></text>
  </g>
</svg>
