<?xml version="1.0" encoding="UTF-8" standalone="no"?>
<!-- Created with Inkscape (http://www.inkscape.org/) -->

<svg
   xmlns:dc="http://purl.org/dc/elements/1.1/"
   xmlns:cc="http://creativecommons.org/ns#"
   xmlns:rdf="http://www.w3.org/1999/02/22-rdf-syntax-ns#"
   xmlns:svg="http://www.w3.org/2000/svg"
   xmlns="http://www.w3.org/2000/svg"
   xmlns:sodipodi="http://sodipodi.sourceforge.net/DTD/sodipodi-0.dtd"
   xmlns:inkscape="http://www.inkscape.org/namespaces/inkscape"
   version="1.1"
   id="svg2"
   width="666.66669"
   height="585.33331"
   viewBox="0 0 666.66669 585.33331"
   sodipodi:docname="piper.svg"
   inkscape:export-filename="/home/january/Pictures/piper.png"
   inkscape:export-xdpi="9.6000004"
   inkscape:export-ydpi="9.6000004"
   inkscape:version="0.92.5 (2060ec1f9f, 2020-04-08)">
  <metadata
     id="metadata8">
    <rdf:RDF>
      <cc:Work
         rdf:about="">
        <dc:format>image/svg+xml</dc:format>
        <dc:type
           rdf:resource="http://purl.org/dc/dcmitype/StillImage" />
        <dc:title />
      </cc:Work>
    </rdf:RDF>
  </metadata>
  <defs
     id="defs6" />
  <sodipodi:namedview
     pagecolor="#ffffff"
     bordercolor="#666666"
     borderopacity="1"
     objecttolerance="10"
     gridtolerance="10"
     guidetolerance="10"
     inkscape:pageopacity="0"
     inkscape:pageshadow="2"
     inkscape:window-width="1920"
     inkscape:window-height="1016"
     id="namedview4"
     showgrid="false"
     inkscape:zoom="0.80637816"
     inkscape:cx="742.57062"
     inkscape:cy="292.66666"
     inkscape:window-x="0"
     inkscape:window-y="27"
     inkscape:window-maximized="1"
     inkscape:current-layer="svg2" />
  <rect
     style="opacity:1;fill:#47336f;fill-opacity:1;stroke:none;stroke-width:37.79527664;stroke-miterlimit:4;stroke-dasharray:none;stroke-dashoffset:0;stroke-opacity:1"
     id="rect4569"
     width="800"
     height="800"
     x="-74.406776"
     y="-1.2401149" />
  <path
     style="fill:#ffffff;stroke-width:1.33333337;fill-opacity:1"
     d="m 380.25138,533.0446 c -15.23415,-16.76364 -49.22639,-0.29637 -67.73805,-17.03656 -19.38522,-20.47328 -21.57553,-52.2756 -32.27159,-77.98977 -7.16283,-23.72371 -5.20986,-49.3993 4.42138,-72.0658 7.59813,-6.62217 32.58346,-16.72363 25.66669,2.6045 -8.00599,25.12001 -13.13874,49.49628 2.89148,73.22895 1.94148,22.83099 30.89691,58.0892 7.47851,73.13937 16.41516,12.37963 52.81783,7.57708 76.87063,9.28917 13.43982,5.25076 33.04978,-8.93486 10.38012,-10.58236 -27.56592,1.55531 -62.30893,-1.87379 -68.9335,-34.8017 -10.5166,-26.34441 -16.88939,-54.77766 -20.27987,-82.085 2.85885,-22.37348 4.93852,-49.79755 35.04516,-42.79315 39.17905,-4.64817 78.61306,-15.47978 112.10382,-36.73413 34.94308,-23.64929 63.97883,-62.04841 62.96154,-105.92992 2.29265,-18.43842 -13.76636,-67.75515 19.98449,-57.55058 27.1111,0.83866 50.97702,17.32179 76.21015,21.78068 -5.4307,-20.05904 -38.83628,-26.748 -55.93585,-39.73132 -15.50566,-5.06534 -24.43272,-12.92821 -20.51406,-29.73265 -4.92331,-27.322582 -36.4825,-38.158722 -61.06795,-37.327962 -28.93362,-5.06422 -47.29725,22.90555 -57.76867,45.477462 -12.12094,28.48053 -44.09251,26.16238 -69.50443,30.10592 -43.58338,4.97847 -85.9256,17.26611 -125.35162,36.53619 -23.55205,11.40396 -49.29229,18.16946 -73.98176,26.03509 -26.92911,3.20867 -51.71811,17.24531 -78.858788,19.39307 -28.01106,-2.16884 -50.87389,11.92003 -76.1066095,16.19016 -28.1125705,0.57234 -0.27861,31.00964 14.6016595,32.0251 28.84608,5.13304 58.21036,7.59053 87.246808,11.87604 26.60429,9.71251 46.43366,31.31503 72.28318,42.09945 18.11725,10.33421 35.106,16.95971 54.96899,23.43854 11.40652,7.69578 39.54425,2.47083 31.41732,26.80872 -9.68852,24.05133 -11.85918,48.5478 3.05618,71.39719 5.81685,22.1526 24.84271,53.69172 14.76798,72.77171 -18.43217,16.80561 30.41162,8.73251 41.7691,13.12162 18.06008,0.36368 36.12508,0.15668 54.18756,0.21172 0,-1.05658 0,-2.11317 0,-3.16975 z"
     id="path4528"
     inkscape:connector-curvature="0" />
  <text
     xml:space="preserve"
     style="font-style:normal;font-weight:normal;font-size:40px;line-height:1.25;font-family:sans-serif;letter-spacing:0px;word-spacing:0px;fill:#ffffff;fill-opacity:1;stroke:none"
     x="-33.483051"
     y="740.26831"
     id="text819"><tspan
       sodipodi:role="line"
       id="tspan817"
       x="-33.483051"
       y="740.26831"
       style="font-style:normal;font-variant:normal;font-weight:normal;font-stretch:normal;font-size:200px;font-family:'Berlin Sans FB';-inkscape-font-specification:'Berlin Sans FB, Normal';font-variant-ligatures:normal;font-variant-caps:normal;font-variant-numeric:normal;font-feature-settings:normal;text-align:start;writing-mode:lr-tb;text-anchor:start;fill:#ffffff;fill-opacity:1">seaPiper</tspan></text>
  <text
     xml:space="preserve"
     style="font-style:normal;font-weight:normal;font-size:40px;line-height:1.25;font-family:sans-serif;letter-spacing:0px;word-spacing:0px;fill:#000000;fill-opacity:1;stroke:none"
     x="7.4406776"
     y="394.35593"
     id="text4526"><tspan
       sodipodi:role="line"
       id="tspan4524"
       x="7.4406776"
       y="394.35593"> </tspan></text>
</svg>
